<?xml version="1.0" encoding="UTF-8"?>
<svg id="Capa_1" data-name="Capa 1" xmlns="http://www.w3.org/2000/svg" viewBox="0 0 1284 798.08">
  <defs>
    <style>
      .cls-1 {
        fill: #a61e2d;
      }
    </style>
  </defs>
  <path class="cls-1" d="M1139.63,586.33c.07,1.12-15.81,11.62-17.23,11.56l-54.08-2.96-46.61-4.13c-6.04-.56-12.96.28-18.39-.34-20.83-2.4-43.15-4.19-64.05-4.8-.95-.22-2.78-.39-3.8-.5-19.27-2.01-38.81-2.23-58.01-3.8l-42.88-3.63c-7.87-.67-15.74-.73-23.14-1.28l-48.51-3.74c-7.19,2.96-8.82,9.72-13.09,13.79-11.6,11-20.83,24.07-32.23,35.13l-9.16,8.94c-2.24,2.18-4.07,4.41-6.38,5.98-7.19-1.9-14.93-4.36-21.51-7.6-15.94-7.93-32.16-15.75-48.78-22.62-5.22-2.18-10.52-6.14-16.55-7.82-16.15,5.53-29.92,13.35-44.58,19.77l-55.57,24.41c-16.28,7.15-33.25,13.74-48.65,22-.61,0-1.7.28-2.31.45l-2.17,1.28-2.17,1.34c-4.07,1.17-8.21,2.57-12.48,4.58l-45.73,21.33c-18.25,8.49-37.18,16.2-55.7,24.35l-34.13,14.97c-5.29,2.35-27.07,6.98-29.92,4.47-.75-.67,8.75-1.4,9.09-2.29,2.78-7.48,4.89-15.25,8.89-22.06,4-6.81,4.75-13.63,7.19-19.99l39.15-102.2,4.95-9.89c5.16-10.22,12.14-31.33,15.81-42,.2-.56.27-1.73.54-2.23,6.11-13.07,15.47-38.76,20.49-53.34,3.94-11.34,11.74-27.03,16.49-41.16,1.22-3.57,3.32-9.33,4.95-12.73,7.94-16.53,12.62-34.12,19.47-50.88l20.83-50.99-167.79,409.87L498.6,201.08c1.56-3.91,2.85-8.43,4.41-11.73,5.7-11.95-204.7,552.9-200.36,540.5,1.56-4.47-10.65,8.99-20.76,7.65-1.63-.22,235.5-604.56,235.84-605.9l18.05-48.81s11.26-36.75,12.82-35.69M1011.53,583.81l102.18,6.81c-8.82-9.22-17.23-16.25-26.12-24.63l-107.61-100.64-107.06-100.36-110.12-102.82-107.2-100.14-89.63-84.56,35.55,89.25,64.59,162.24,82.64,205.47,4.61,8.1,9.7,23.96,79.72,5.36,82.37,5.86,86.44,6.09h-.07ZM552.2,81.45l-7.06,19.88-42.68,111.64-49.66,127.78-49.8,127.73-50.28,129.18-48.78,127.11c-.75,1.84-2.78,3.18-1.36,4.97l75.38-33.68,74.9-33.34,75.31-33.45,83.39-36.8-45.12-397.7M746.17,577.5c3.46-2.23,6.65-5.42,8.01-9.22l-55.64-137.83-52.24-130.41-50.61-126.5c-5.7-14.3-9.84-29.15-18.45-43.62l125.99,495.71,42.95-48.2v.06Z"/>
</svg>